inDegrees=no
num_controls=7
num_derivatives=13
num_iterations=200
num_multipliers=7
num_parameters=0
num_slacks=7
num_states=26
objective=4.677654
objective_accelerations=0.614594
objective_balance=0.100754
objective_effort=0.471574
objective_height=3.448732
objective_ligament=0.042000
solver_duration=2201.845442
status=Solve_Succeeded
success=true
DataType=double
version=3
OpenSimVersion=4.4-2022-07-23-0e9fedc
endheader
time	/jointset/ground_pelvis/pelvis_tilt/value	/jointset/ground_pelvis/pelvis_tx/value	/jointset/ground_pelvis/pelvis_ty/value	/jointset/hip_l/hip_flexion_l/value	/jointset/hip_l/hip_adduction_l/value	/jointset/hip_l/hip_rotation_l/value	/jointset/back/lumbar_extension/value	/jointset/patellofemoral_l/patellar_flexion_l/value	/jointset/knee_l/knee_flexion_l/value	/jointset/knee_l/knee_adduction_l/value	/jointset/knee_l/knee_rotation_l/value	/jointset/ankle_l/ankle_angle_l/value	/jointset/subtalar_l/subtalar_angle_l/value	/jointset/ground_pelvis/pelvis_tilt/speed	/jointset/ground_pelvis/pelvis_tx/speed	/jointset/ground_pelvis/pelvis_ty/speed	/jointset/hip_l/hip_flexion_l/speed	/jointset/hip_l/hip_adduction_l/speed	/jointset/hip_l/hip_rotation_l/speed	/jointset/back/lumbar_extension/speed	/jointset/patellofemoral_l/patellar_flexion_l/speed	/jointset/knee_l/knee_flexion_l/speed	/jointset/knee_l/knee_adduction_l/speed	/jointset/knee_l/knee_rotation_l/speed	/jointset/ankle_l/ankle_angle_l/speed	/jointset/subtalar_l/subtalar_angle_l/speed	/forceset/tau_hip_flexion_l	/forceset/tau_hip_adduction_l	/forceset/tau_hip_rotation_l	/forceset/tau_knee_flexion_l	/forceset/tau_ankle_angle_l	/forceset/tau_subtalar_angle_l	/forceset/tau_lumbar_extension	lambda_cid13_p0	lambda_cid13_p1	lambda_cid13_p2	lambda_cid13_p3	lambda_cid13_p4	lambda_cid13_p5	lambda_cid14_p0	/jointset/ground_pelvis/pelvis_tilt/accel	/jointset/ground_pelvis/pelvis_tx/accel	/jointset/ground_pelvis/pelvis_ty/accel	/jointset/hip_l/hip_flexion_l/accel	/jointset/hip_l/hip_adduction_l/accel	/jointset/hip_l/hip_rotation_l/accel	/jointset/back/lumbar_extension/accel	/jointset/patellofemoral_l/patellar_flexion_l/accel	/jointset/knee_l/knee_flexion_l/accel	/jointset/knee_l/knee_adduction_l/accel	/jointset/knee_l/knee_rotation_l/accel	/jointset/ankle_l/ankle_angle_l/accel	/jointset/subtalar_l/subtalar_angle_l/accel	gamma_cid13_p0	gamma_cid13_p1	gamma_cid13_p2	gamma_cid13_p3	gamma_cid13_p4	gamma_cid13_p5	gamma_cid14_p0
1.5	-0.335095030467205	-0.03420760555418197	0.6960292170803644	1.393379559586746	-0.2479462212191428	-0.0269871633293567	-0.3743131180583729	1.133112186752216	1.133112186752431	0.02702192196862712	0.1744388068316216	0.2879225122114167	0.08038218520742321	0.3150509481749757	0.0929545000700038	0.7936909418923319	-2.548548085927668	-0.05650093790547512	-0.3817809052099396	0.5166522336983091	-2.840797673451126	-2.840797673451084	-0.4880077067392032	0.000315705729472074	-0.7557336210949941	-0.2878732190114619	-0.2185119839419381	0.009199126494107361	-0.01107602482612859	-0.3085238072596304	0.07804028410133809	0.02656503616265918	0.2175088337981212	-12.65558236317502	-7.564453772682307	-1.203172747366531	-4.430993416129131	-611.9920934581855	-59.32759713831943	-2.477219210926199	1.31336258828016	0.9331653136188518	-0.4852086940083906	-2.351271068274546	-0.2338633788351231	-1.066514202307108	2.373281061913595	-2.461900942490539	-2.461900942490415	-0.4362234648460717	-0.08718269284960842	-1.680496098340268	-0.3915838743682549	-2.18791608132886e-07	5.597346053850553e-06	3.761784805651825e-06	9.229005162509542e-07	2.896737002504752e-07	4.492999407412581e-06	5.680049209489976e-08
1.51	-0.3318794378406544	-0.0332314376479453	0.7039399288898996	1.367779469956854	-0.2485238992566809	-0.03086462842247471	-0.3690286493329715	1.104584329284391	1.104584329284484	0.02212340528378787	0.1744426242902223	0.2802819480824695	0.07748306893099392	0.3279931969192196	0.1022741399211693	0.7882510520862587	-2.571129603168878	-0.05900114988364948	-0.3937383696730106	0.5401997169563642	-2.864369593074065	-2.864369593074042	-0.4916585843365591	0.000438456997969291	-0.7722343049352539	-0.2918395698741436	-0.2118103269679368	0.008677290665637235	-0.01052957331093144	-0.302387355874799	0.07986658673089855	0.02617986243059536	0.2116115138641096	-11.63599346166132	-7.794397574980217	-0.9167001889679495	-4.848094294337317	-604.4797571135798	-59.00416251163744	-3.584445828818937	1.273497638440897	0.9308164799041726	-0.6033726725720656	-2.160561385905065	-0.253909340574598	-1.264042816466221	2.339212794329832	-2.244233077322852	-2.244233077325694	-0.3231002253672	0.05977921419456997	-1.612881850343505	-0.383995306640171	-1.818828189233569e-07	5.983073903169675e-06	3.654248856559094e-06	9.551351662635353e-07	3.019035095298675e-07	4.449870461686805e-06	1.171936807680057e-07
1.52	-0.3285366544024714	-0.03216218271138892	0.7117902430916411	1.341963771287777	-0.2491257412606585	-0.03486240420984798	-0.3635099596076735	1.075832873499321	1.075832873499272	0.01718966375933633	0.1744472242970032	0.2724807716504246	0.07454732222305312	0.3404891105012269	0.1115719061339495	0.7816114203335407	-2.591669893764519	-0.06133373119245747	-0.4058430440624465	0.5634964336775402	-2.885517336902094	-2.88551733690209	-0.4950526746613916	0.0004722153662741	-0.7878560817145044	-0.2951993053137079	-0.2051086699939376	0.008155454837164122	-0.009983121795796369	-0.296250904489971	0.08169288936045725	0.02579468869852744	0.2057141939300964	-10.60578050649421	-8.04317711323047	-0.6078401457741442	-5.358006638056481	-596.8269573953437	-58.71926785602312	-4.894726326137893	1.224095555833142	0.9287905859415537	-0.7251570833373978	-1.943025739160899	-0.2003372449617948	-1.095956187579998	2.323127754537933	-1.977065783508362	-1.977065783508358	-0.3848660103413611	-0.104981272888201	-1.504714686138755	-0.2702607897448153	-1.383595312130972e-07	6.292804131510113e-06	3.481286173128137e-06	9.654112851360016e-07	3.247260862687527e-07	4.371060497862652e-06	1.752444147277408e-07
1.53	-0.3250711094781387	-0.03100014171422072	0.7195682624196942	1.315952758611271	-0.2497501140721136	-0.03898230745440682	-0.3577598373430924	1.046882207166539	1.046882207166493	0.01222311508229793	0.1744523246279893	0.2645279397720045	0.07158093406006218	0.3525380905845789	0.1208220409616782	0.7737997496953584	-2.610179596978563	-0.06349655161369985	-0.418202177873249	0.5864692139450457	-2.904187238895156	-2.904187238895147	-0.4981814278605297	0.0005643439774512638	-0.8025431463865077	-0.2979584189379717	-0.1983258350561232	0.007164695055118473	-0.009627986913008374	-0.2904704688014058	0.08328198417134169	0.02557678499892522	0.1997098840633027	-9.670706407515508	-8.377678941624694	-0.2513436386828999	-5.681020085624752	-589.4851221292492	-58.66737648752305	-6.412652878029552	1.183042135481983	0.9211761532184881	-0.8380009820814877	-1.751977524738904	-0.2184484803027652	-1.315220460174606	2.275532369236267	-1.747700903511848	-1.747700903510999	-0.2645614094533765	0.06808641797473104	-1.425372189242124	-0.2621710223306451	-8.780833884581147e-08	6.5217868875607e-06	3.238807584462816e-06	9.523564646720965e-07	3.58803478433349e-07	4.254339452308973e-06	2.308062905545194e-07
1.54	-0.3214875261727912	-0.02974598912436879	0.7272623992557609	1.289767241920182	-0.2503949538957022	-0.04322766773355492	-0.3517817514345599	1.017757692114566	1.017757692114524	0.007227742586352927	0.1744587015430405	0.256433303280561	0.06859026788611571	0.3640967867037532	0.1299942246706955	0.7648349219362168	-2.626570696681111	-0.06542713361881157	-0.43093445097783	0.6090891624677118	-2.920287080740487	-2.920287080740473	-0.5008174384498139	0.0007275321827890465	-0.8162170043189565	-0.3000549075047786	-0.1915430001183215	0.006173935273001914	-0.009272852029901588	-0.2846900331128386	0.08487107898220479	0.02535888129922632	0.193705574196505	-8.723906734421242	-8.732112499591645	0.1287470274619709	-6.102804809072253	-581.9764331990003	-58.66439083753596	-8.139437357916083	1.126038762997908	0.9132003621990088	-0.9557885075292689	-1.519305036861521	-0.1538895617356582	-1.17058404633561	2.252561405570192	-1.463053753962111	-1.463053753962059	-0.2863174883705218	-0.09076935405621506	-1.302073338228237	-0.1377357782534707	-5.224103382665953e-08	6.334805059516415e-06	2.888522940844643e-06	9.059589452337566e-07	3.481639919357707e-07	3.902819447202185e-06	2.628206098741359e-07
1.55	-0.317790955574391	-0.02840059449001649	0.7348611803755385	1.263428674281218	-0.2510577443800833	-0.04760003240688308	-0.3455794982483495	0.9884854791997725	0.9884854791997368	0.002206777694976165	0.1744658484910095	0.2482072646469747	0.0655821854759369	0.3751178270084816	0.1390582861311578	0.7547409684924323	-2.640773070039876	-0.06709960644295138	-0.443528882307006	0.6312653976510055	-2.933718373443568	-2.93371837344364	-0.5033864691156285	0.0007032611860675991	-0.8288209242605327	-0.3014703774227642	-0.18440335619167	0.00540226494360016	-0.009041755705729038	-0.2796392688269568	0.08694569500709359	0.02460576440092763	0.1873883318368838	-7.680293828802979	-8.838076074341519	0.4315601363171604	-6.443031312003048	-574.8076973011619	-58.24726083243156	-10.02826922478116	1.075228865312688	0.8992014320373934	-1.063198498200149	-1.315224162894995	-0.1698848520624169	-1.302112794020462	2.185743006641527	-1.217651795081672	-1.217651795094757	-0.2430248049671524	0.041494164597634	-1.213879329703939	-0.130866711837795	-3.393777292600867e-08	5.668559688928066e-06	2.414026973041668e-06	8.211448378466135e-07	2.86002884370907e-07	3.280770206088572e-06	2.677040488702845e-07
1.56	-0.3139871561327189	-0.0269653207622455	0.7423536220137986	1.236959178773161	-0.2517364513345653	-0.05209798941710368	-0.3391583650239197	0.9590920564045992	0.9590920564046335	-0.00284004329283015	0.1744727027563997	0.2398603212124533	0.06256246554392475	0.385542555357301	0.1479700433544346	0.7435670256327171	-2.652756270499065	-0.06861042763941423	-0.4560529183486794	0.6528651701115846	-2.944529056810675	-2.944529056810835	-0.505988657752678	0.0006689956724521329	-0.8403979645053801	-0.3023824118714252	-0.177263712265076	0.004630594614022427	-0.008810659380675724	-0.2745885045410653	0.08902031103193646	0.02385264750239018	0.1810710894772268	-6.639043348098213	-8.952713861832601	0.7461331602072562	-6.813816300807311	-567.6685004574032	-57.89105683960679	-11.93772553916473	1.006776371816439	0.8827395147616383	-1.171786390715464	-1.075470456945973	-0.1215592362003563	-1.156504988835033	2.137268861027449	-0.9389318867674482	-0.9389318867674531	-0.2929490826174279	-0.09276825743518974	-1.096697398882866	-0.03704868438854946	-1.312296901284541e-07	5.426417774684714e-06	3.13658283151729e-06	8.806312995259174e-07	1.490143660869462e-07	2.931537427136545e-06	2.016408377235342e-07
1.57	-0.3100822245729037	-0.02544179702395631	0.7497290160747574	1.210381334528223	-0.2524282870721753	-0.05672389651344101	-0.3325241923326938	0.9296039992844277	0.9296039992844446	-0.007908927439879544	0.1744799351251024	0.2314032607477913	0.05953769767118996	0.3953399492241216	0.1566972467271279	0.7313425634729437	-2.662420038254814	-0.06971150251037861	-0.4690690436681854	0.673854999000961	-2.952609178387555	-2.952609178387621	-0.5078164246464835	0.0007586703304772137	-0.8508227880960172	-0.302470263821526	-0.1701574665103048	0.003593329773806991	-0.008796661544344038	-0.2695697089001788	0.09083021213132511	0.02330292446529519	0.1747493341606979	-5.693873432043473	-9.154974512354423	1.093084935321895	-7.064059857805291	-560.7976334740722	-57.73156982981144	-13.8533466457205	0.9506328646548432	0.8623438304511669	-1.273202438401628	-0.8529828739659934	-0.09903021358677572	-1.365410371909614	2.062684533433239	-0.6715655273351584	-0.6715655273210543	-0.1308917888340111	0.05570212344137705	-0.9864273929638712	0.01876575471079426	-3.730155799597684e-07	5.714405180872603e-06	5.355453472841146e-06	1.120493472538278e-06	-8.15084155958851e-08	2.923325225886499e-06	4.689431389816117e-08
1.58	-0.3060824366803072	-0.02383207463555405	0.7569770802521596	1.183718622017913	-0.2531300632787029	-0.06147821367666479	-0.3256835524264656	0.9000493383016652	0.9000493383016345	-0.01299672951508568	0.1744872375995962	0.2228477415364602	0.05651473511996041	0.4045138219125246	0.1652097733770488	0.7181010489213819	-2.669729923573624	-0.07059852142301967	-0.4817349317237442	0.6941586131119384	-2.957849829331914	-2.957849829331886	-0.5097722433831705	0.0006830168293064723	-0.8600897138390484	-0.302021347570366	-0.1630512207555593	0.002556064933537899	-0.008782663708109605	-0.2645509132593082	0.09264011323069543	0.02275320142812808	0.168427578844155	-4.75342796822863	-9.354338394016205	1.437203304836151	-7.319566047736706	-553.9791203748052	-57.55422030704746	-15.76901355988355	0.8820721361332142	0.8398041702068542	-1.375196869073169	-0.6046939695583009	-0.07874804453563729	-1.086457536045541	2.000025905347804	-0.3710377602632545	-0.3710377602632742	-0.318559451193674	-0.1258338892744511	-0.8651178293620304	0.07030495586357996	-5.267375984104468e-07	5.892476988186963e-06	6.757656611237716e-06	1.271737291291952e-06	-2.428538407673685e-07	2.791327514281277e-06	-4.493760417020426e-08
